<svg xmlns="http://www.w3.org/2000/svg" xmlns:xlink="http://www.w3.org/1999/xlink" width="342" zoomAndPan="magnify" viewBox="0 0 256.5 85.499998" height="114" preserveAspectRatio="xMidYMid meet" version="1.0"><defs><g/><clipPath id="07fe5f1672"><path d="M 236.476562 58.921875 L 251.6875 58.921875 L 251.6875 74.132812 L 236.476562 74.132812 Z M 236.476562 58.921875 " clip-rule="nonzero"/></clipPath><clipPath id="5d61adb551"><path d="M 244.082031 58.921875 C 239.882812 58.921875 236.476562 62.328125 236.476562 66.527344 C 236.476562 70.730469 239.882812 74.132812 244.082031 74.132812 C 248.285156 74.132812 251.6875 70.730469 251.6875 66.527344 C 251.6875 62.328125 248.285156 58.921875 244.082031 58.921875 Z M 244.082031 58.921875 " clip-rule="nonzero"/></clipPath><clipPath id="b2e4f09dea"><path d="M 0.476562 0.921875 L 15.6875 0.921875 L 15.6875 16.132812 L 0.476562 16.132812 Z M 0.476562 0.921875 " clip-rule="nonzero"/></clipPath><clipPath id="a69540f11c"><path d="M 8.082031 0.921875 C 3.882812 0.921875 0.476562 4.328125 0.476562 8.527344 C 0.476562 12.730469 3.882812 16.132812 8.082031 16.132812 C 12.285156 16.132812 15.6875 12.730469 15.6875 8.527344 C 15.6875 4.328125 12.285156 0.921875 8.082031 0.921875 Z M 8.082031 0.921875 " clip-rule="nonzero"/></clipPath><clipPath id="e6ca6e0d70"><rect x="0" width="16" y="0" height="17"/></clipPath></defs><g fill="#ffffff" fill-opacity="1"><g transform="translate(5.732884, 73.819168)"><g><path d="M 5.921875 -57.203125 L 39.890625 -57.203125 L 39.890625 -49.59375 L 15.96875 -49.59375 L 15.96875 -33.125 L 35.65625 -33.125 L 34.390625 -25.515625 L 15.96875 -25.515625 L 15.96875 0 L 5.921875 0 Z M 5.921875 -57.203125 "/></g></g></g><g fill="#ffffff" fill-opacity="1"><g transform="translate(41.894385, 73.819168)"><g><path d="M 39.46875 -20.359375 C 39.46875 -16.984375 39.675781 -14.15625 40.09375 -11.875 C 40.519531 -9.59375 40.984375 -7.75 41.484375 -6.34375 C 42.109375 -4.644531 42.785156 -3.316406 43.515625 -2.359375 L 36 0.671875 C 35.269531 -0.0546875 34.59375 -0.925781 33.96875 -1.9375 C 33.457031 -2.84375 32.976562 -3.925781 32.53125 -5.1875 C 32.082031 -6.457031 31.800781 -7.96875 31.6875 -9.71875 C 30.726562 -6.332031 29.191406 -3.78125 27.078125 -2.0625 C 24.960938 -0.351562 22.101562 0.5 18.5 0.5 C 15.851562 0.5 13.554688 0.0078125 11.609375 -0.96875 C 9.671875 -1.957031 8.050781 -3.363281 6.75 -5.1875 C 5.457031 -7.019531 4.5 -9.234375 3.875 -11.828125 C 3.257812 -14.421875 2.953125 -17.296875 2.953125 -20.453125 C 2.953125 -23.660156 3.445312 -26.628906 4.4375 -29.359375 C 5.425781 -32.097656 6.804688 -34.453125 8.578125 -36.421875 C 10.347656 -38.390625 12.472656 -39.9375 14.953125 -41.0625 C 17.429688 -42.1875 20.164062 -42.75 23.15625 -42.75 C 24.84375 -42.75 26.601562 -42.625 28.4375 -42.375 C 30.269531 -42.125 31.972656 -41.859375 33.546875 -41.578125 C 35.117188 -41.296875 36.453125 -41.023438 37.546875 -40.765625 C 38.648438 -40.515625 39.289062 -40.363281 39.46875 -40.3125 Z M 20.109375 -6.25 C 21.515625 -6.25 22.804688 -6.726562 23.984375 -7.6875 C 25.171875 -8.644531 26.203125 -9.898438 27.078125 -11.453125 C 27.953125 -13.003906 28.628906 -14.773438 29.109375 -16.765625 C 29.585938 -18.765625 29.828125 -20.8125 29.828125 -22.90625 L 29.828125 -35.0625 C 29.265625 -35.238281 28.421875 -35.4375 27.296875 -35.65625 C 26.171875 -35.882812 25.15625 -36 24.25 -36 C 22.113281 -36 20.351562 -35.628906 18.96875 -34.890625 C 17.59375 -34.160156 16.476562 -33.144531 15.625 -31.84375 C 14.78125 -30.550781 14.1875 -29.003906 13.84375 -27.203125 C 13.507812 -25.398438 13.34375 -23.429688 13.34375 -21.296875 C 13.34375 -19.328125 13.398438 -17.4375 13.515625 -15.625 C 13.628906 -13.820312 13.925781 -12.21875 14.40625 -10.8125 C 14.882812 -9.40625 15.570312 -8.289062 16.46875 -7.46875 C 17.375 -6.65625 18.585938 -6.25 20.109375 -6.25 Z M 20.109375 -6.25 "/></g></g></g><g fill="#ffffff" fill-opacity="1"><g transform="translate(87.181163, 73.819168)"><g><path d="M 14.359375 0.34375 C 11.378906 0.34375 9.097656 -0.539062 7.515625 -2.3125 C 5.941406 -4.09375 5.15625 -6.390625 5.15625 -9.203125 L 5.15625 -42.078125 L 14.78125 -42.078125 L 14.78125 -10.0625 C 14.78125 -8.757812 14.976562 -7.882812 15.375 -7.4375 C 15.769531 -6.988281 16.363281 -6.765625 17.15625 -6.765625 C 17.375 -6.765625 17.609375 -6.765625 17.859375 -6.765625 C 18.117188 -6.765625 18.363281 -6.789062 18.59375 -6.84375 C 18.8125 -6.84375 19.0625 -6.867188 19.34375 -6.921875 L 20.359375 -0.84375 C 19.960938 -0.613281 19.457031 -0.414062 18.84375 -0.25 C 18.332031 -0.0820312 17.695312 0.0546875 16.9375 0.171875 C 16.175781 0.285156 15.316406 0.34375 14.359375 0.34375 Z M 10.140625 -60.84375 C 11.941406 -60.84375 13.320312 -60.304688 14.28125 -59.234375 C 15.238281 -58.160156 15.71875 -56.78125 15.71875 -55.09375 C 15.71875 -53.40625 15.222656 -51.992188 14.234375 -50.859375 C 13.253906 -49.734375 11.804688 -49.171875 9.890625 -49.171875 C 8.085938 -49.171875 6.691406 -49.71875 5.703125 -50.8125 C 4.710938 -51.914062 4.21875 -53.257812 4.21875 -54.84375 C 4.21875 -56.582031 4.710938 -58.015625 5.703125 -59.140625 C 6.691406 -60.273438 8.171875 -60.84375 10.140625 -60.84375 Z M 10.140625 -60.84375 "/></g></g></g><g fill="#ffffff" fill-opacity="1"><g transform="translate(108.810671, 73.819168)"><g><path d="M 2.53125 0 L 2.53125 -5.75 L 21.203125 -35.328125 C 18.335938 -35.148438 15.492188 -35.0625 12.671875 -35.0625 L 4.390625 -35.0625 L 3.21875 -42.078125 L 32.453125 -42.078125 L 32.453125 -36.328125 L 14.03125 -6.765625 C 16.5625 -6.929688 19.09375 -7.015625 21.625 -7.015625 L 33.203125 -7.015625 L 33.203125 0 Z M 2.53125 0 "/></g></g></g><g fill="#ffffff" fill-opacity="1"><g transform="translate(143.28265, 73.819168)"><g><path d="M 39.46875 -20.359375 C 39.46875 -16.984375 39.675781 -14.15625 40.09375 -11.875 C 40.519531 -9.59375 40.984375 -7.75 41.484375 -6.34375 C 42.109375 -4.644531 42.785156 -3.316406 43.515625 -2.359375 L 36 0.671875 C 35.269531 -0.0546875 34.59375 -0.925781 33.96875 -1.9375 C 33.457031 -2.84375 32.976562 -3.925781 32.53125 -5.1875 C 32.082031 -6.457031 31.800781 -7.96875 31.6875 -9.71875 C 30.726562 -6.332031 29.191406 -3.78125 27.078125 -2.0625 C 24.960938 -0.351562 22.101562 0.5 18.5 0.5 C 15.851562 0.5 13.554688 0.0078125 11.609375 -0.96875 C 9.671875 -1.957031 8.050781 -3.363281 6.75 -5.1875 C 5.457031 -7.019531 4.5 -9.234375 3.875 -11.828125 C 3.257812 -14.421875 2.953125 -17.296875 2.953125 -20.453125 C 2.953125 -23.660156 3.445312 -26.628906 4.4375 -29.359375 C 5.425781 -32.097656 6.804688 -34.453125 8.578125 -36.421875 C 10.347656 -38.390625 12.472656 -39.9375 14.953125 -41.0625 C 17.429688 -42.1875 20.164062 -42.75 23.15625 -42.75 C 24.84375 -42.75 26.601562 -42.625 28.4375 -42.375 C 30.269531 -42.125 31.972656 -41.859375 33.546875 -41.578125 C 35.117188 -41.296875 36.453125 -41.023438 37.546875 -40.765625 C 38.648438 -40.515625 39.289062 -40.363281 39.46875 -40.3125 Z M 20.109375 -6.25 C 21.515625 -6.25 22.804688 -6.726562 23.984375 -7.6875 C 25.171875 -8.644531 26.203125 -9.898438 27.078125 -11.453125 C 27.953125 -13.003906 28.628906 -14.773438 29.109375 -16.765625 C 29.585938 -18.765625 29.828125 -20.8125 29.828125 -22.90625 L 29.828125 -35.0625 C 29.265625 -35.238281 28.421875 -35.4375 27.296875 -35.65625 C 26.171875 -35.882812 25.15625 -36 24.25 -36 C 22.113281 -36 20.351562 -35.628906 18.96875 -34.890625 C 17.59375 -34.160156 16.476562 -33.144531 15.625 -31.84375 C 14.78125 -30.550781 14.1875 -29.003906 13.84375 -27.203125 C 13.507812 -25.398438 13.34375 -23.429688 13.34375 -21.296875 C 13.34375 -19.328125 13.398438 -17.4375 13.515625 -15.625 C 13.628906 -13.820312 13.925781 -12.21875 14.40625 -10.8125 C 14.882812 -9.40625 15.570312 -8.289062 16.46875 -7.46875 C 17.375 -6.65625 18.585938 -6.25 20.109375 -6.25 Z M 20.109375 -6.25 "/></g></g></g><g fill="#ffffff" fill-opacity="1"><g transform="translate(186.879509, 73.819168)"><g><path d="M 31.6875 0 L 31.6875 -27.296875 C 31.6875 -29.660156 31.265625 -31.5625 30.421875 -33 C 29.578125 -34.4375 28.140625 -35.15625 26.109375 -35.15625 C 24.816406 -35.15625 23.5625 -34.828125 22.34375 -34.171875 C 21.132812 -33.523438 20.050781 -32.582031 19.09375 -31.34375 C 18.132812 -30.101562 17.359375 -28.597656 16.765625 -26.828125 C 16.179688 -25.054688 15.890625 -23.070312 15.890625 -20.875 L 15.890625 0 L 6.25 0 L 6.25 -21.296875 C 6.25 -24.671875 6.023438 -27.5 5.578125 -29.78125 C 5.128906 -32.0625 4.648438 -33.910156 4.140625 -35.328125 C 3.523438 -36.953125 2.847656 -38.273438 2.109375 -39.296875 L 9.71875 -42.328125 C 10.28125 -41.710938 10.84375 -40.953125 11.40625 -40.046875 C 11.851562 -39.265625 12.300781 -38.296875 12.75 -37.140625 C 13.207031 -35.984375 13.578125 -34.671875 13.859375 -33.203125 C 15.328125 -36.585938 17.441406 -39.023438 20.203125 -40.515625 C 22.960938 -42.003906 25.863281 -42.75 28.90625 -42.75 C 33.238281 -42.75 36.375 -41.441406 38.3125 -38.828125 C 40.257812 -36.210938 41.234375 -32.675781 41.234375 -28.21875 L 41.234375 0 Z M 31.6875 0 "/></g></g></g><g clip-path="url(#07fe5f1672)"><g clip-path="url(#5d61adb551)"><g transform="matrix(1, 0, 0, 1, 236, 58)"><g clip-path="url(#e6ca6e0d70)"><g clip-path="url(#b2e4f09dea)"><g clip-path="url(#a69540f11c)"><path fill="#ff3131" d="M 0.476562 0.921875 L 15.6875 0.921875 L 15.6875 16.132812 L 0.476562 16.132812 Z M 0.476562 0.921875 " fill-opacity="1" fill-rule="nonzero"/></g></g></g></g></g></g></svg>